<svg xmlns="http://www.w3.org/2000/svg" viewBox="-145.9 216.4 243.9 108"><g stroke="#FFF" stroke-linecap="square" stroke-miterlimit="10"><path fill="#111" d="M-135.5 254.8h30.1v41.8h-30.1z"/><path fill="#FFF" d="M-132.2 259.4h23.5v28.7h-23.5z"/><circle fill="#FFF" cx="-120.5" cy="292.1" r="1.9"/></g><g stroke="#FFF" stroke-linecap="square" stroke-miterlimit="10"><path fill="#A83000" d="M-109.8 252.1h26.1v36.6h-26.1z"/><path fill="#FFF" d="M-106.6 255.4H-87v26.1h-19.6z"/><circle fill="#FFF" cx="-96.7" cy="285" r="1.9"/></g><g stroke="#FFF" stroke-linecap="square" stroke-miterlimit="10"><path fill="#00A187" d="M-125.9 246h20.9v35.3h-20.9z"/><path fill="#FFF" d="M-123.2 248.6h15.7v23.5h-15.7z"/><circle fill="#FFF" cx="-115.4" cy="277.4" r="1.9"/></g><g stroke="#FFF" stroke-linecap="square" stroke-miterlimit="10"><path fill="#FF6400" d="M-112.5 261.2H-89v40.5h-23.5z"/><path fill="#FFF" d="M-109.9 263.8h18.3v28.7h-18.3z"/><circle fill="#FFF" cx="-100.7" cy="296.8" r="1.9"/></g><path d="M-9.5 276.1c.2 0 .3.1.4.2l1 1.1c-.7.8-1.6 1.5-2.4 2.2-.9.6-1.8 1.2-2.9 1.6s-2.2.8-3.4 1-2.6.4-4.1.4c-2.5 0-4.8-.4-6.9-1.3-2.1-.9-3.9-2.1-5.3-3.7-1.5-1.6-2.6-3.5-3.5-5.8-.8-2.3-1.2-4.8-1.2-7.6 0-2.7.4-5.2 1.3-7.5s2.1-4.2 3.6-5.8c1.6-1.6 3.4-2.9 5.6-3.8s4.6-1.3 7.2-1.3c1.3 0 2.5.1 3.6.3 1.1.2 2.1.5 3 .8.9.4 1.8.8 2.7 1.4.8.5 1.6 1.2 2.4 1.9l-.8 1.1c-.1.2-.3.3-.6.3-.2 0-.3-.1-.6-.3-.2-.2-.5-.4-.9-.7-.4-.3-.8-.6-1.3-.9s-1.1-.6-1.8-.9-1.5-.5-2.5-.7c-.9-.2-2-.3-3.2-.3-2.2 0-4.2.4-6 1.1-1.8.8-3.4 1.8-4.7 3.2-1.3 1.4-2.4 3.1-3.1 5.1-.7 2-1.1 4.2-1.1 6.7s.4 4.8 1.1 6.8 1.7 3.7 3 5.1c1.3 1.4 2.8 2.4 4.6 3.2 1.8.7 3.7 1.1 5.7 1.1 1.3 0 2.4-.1 3.5-.3 1-.2 1.9-.4 2.8-.8.8-.3 1.6-.8 2.4-1.2.7-.5 1.5-1.1 2.2-1.7.1-.1.2-.1.2-.2-.2.2-.1.2 0 .2zM12.2 246.2c.1.1.3.2.4.4l23.3 31.2c-.1-.5-.1-1-.1-1.5v-30.2h2.3v36h-1.2c-.4 0-.7-.2-.9-.5l-23.4-31.3c.1.5.1 1 .1 1.5v30.3h-2.3v-36h1.3c.1 0 .3 0 .5.1zM86.8 282.1h-2.6v-17.3H61.6v17.3H59v-36h2.6v16.8h22.6v-16.8h2.6v36zM-56 282.1h-2.6v-36h2.6v36z"/><path fill="#FF6400" d="M-1.8 265.2c0-.3.1-.6.2-.9s.3-.5.5-.8c.2-.2.5-.4.7-.5.3-.1.6-.2.9-.2.3 0 .6.1.9.2.3.1.5.3.8.5.2.2.4.5.5.8.1.3.2.6.2.9 0 .3-.1.6-.2.9-.1.3-.3.5-.5.7-.2.2-.5.4-.8.5-.3.1-.6.2-.9.2-.7 0-1.2-.2-1.7-.7-.4-.4-.6-1-.6-1.6zM46.2 265.2c0-.3.1-.6.2-.9s.3-.5.5-.8c.2-.2.5-.4.7-.5.3-.1.6-.2.9-.2.3 0 .6.1.9.2.3.1.5.3.8.5.2.2.4.5.5.8.1.3.2.6.2.9 0 .3-.1.6-.2.9-.1.3-.3.5-.5.7-.2.2-.5.4-.8.5-.3.1-.6.2-.9.2-.7 0-1.2-.2-1.7-.7-.3-.4-.6-1-.6-1.6zM-50.1 265.2c0-.3.1-.6.2-.9s.3-.5.5-.8c.2-.2.5-.4.7-.5.3-.1.6-.2.9-.2.3 0 .6.1.9.2.3.1.5.3.8.5.2.2.4.5.5.8s.2.6.2.9c0 .3-.1.6-.2.9s-.3.5-.5.7c-.2.2-.5.4-.8.5-.3.1-.6.2-.9.2-.7 0-1.2-.2-1.7-.7-.4-.4-.6-1-.6-1.6z"/><g><path d="M-25 289.4v.7h-6.3v4.8h5.2v.7h-5.2v5h6.3v.7h-7.2v-12h7.2zM-22.6 301.3v-8.4h.4c.1 0 .2.1.3.2l.1 1.3c.4-.5.8-.9 1.3-1.2.5-.3 1.1-.4 1.7-.4.5 0 .9.1 1.2.2.4.1.6.4.9.6.2.3.4.6.5 1 .1.4.2.8.2 1.3v5.4h-.8V296c0-.8-.2-1.4-.5-1.9s-.9-.7-1.7-.7c-.6 0-1.1.1-1.5.4-.5.3-.9.7-1.3 1.2v6.3h-.8zM-10.7 292.8c.4 0 .7 0 1 .1.3.1.6.2.8.4h2.2v.3c0 .1-.1.2-.2.2l-1.3.1c.2.2.3.5.4.7.1.3.1.6.1.9 0 .4-.1.8-.2 1.1-.1.3-.4.6-.6.8-.3.2-.6.4-.9.5-.4.1-.8.2-1.2.2-.5 0-.9-.1-1.3-.2-.2.1-.4.3-.6.5-.1.2-.2.4-.2.5 0 .2.1.4.3.6s.4.2.7.3c.3.1.6.1 1 .1s.7 0 1.1.1.7.1 1.1.1c.4.1.7.1 1 .3.3.1.5.3.7.5s.3.5.3.9c0 .3-.1.7-.3 1-.2.3-.4.6-.8.9-.3.2-.7.4-1.2.6-.5.1-1 .2-1.6.2-.6 0-1.1-.1-1.6-.2s-.8-.3-1.1-.5c-.3-.2-.5-.4-.7-.7-.2-.3-.2-.6-.2-.9 0-.4.1-.8.4-1.1s.7-.6 1.2-.7c-.3-.1-.5-.2-.7-.4-.2-.2-.2-.4-.2-.8 0-.1 0-.2.1-.4 0-.1.1-.3.2-.4.1-.1.2-.2.3-.4.1-.1.3-.2.4-.3-.4-.2-.7-.5-.9-.9-.2-.4-.3-.8-.3-1.3 0-.4.1-.8.2-1.1.1-.3.3-.6.6-.8.3-.2.6-.4 1-.5.2-.3.6-.3 1-.3zm3.2 9.1c0-.3-.1-.5-.2-.6-.1-.2-.3-.3-.6-.4-.2-.1-.5-.2-.8-.2-.3 0-.6-.1-.9-.1-.3 0-.7 0-1-.1-.3 0-.6-.1-.9-.1l-.6.3c-.2.1-.3.2-.5.4-.1.1-.2.3-.3.5s-.1.3-.1.5.1.5.2.7c.1.2.3.4.6.5.2.2.5.3.9.4.4.1.8.1 1.2.1.4 0 .8 0 1.2-.1s.7-.2 1-.4c.3-.2.5-.4.6-.6.1-.3.2-.5.2-.8zm-3.2-4.3c.4 0 .7-.1 1-.2.3-.1.5-.2.7-.4.2-.2.3-.4.4-.7.1-.3.1-.5.1-.9s-.1-.6-.2-.9c-.1-.3-.2-.5-.4-.7-.2-.2-.4-.3-.7-.4-.3-.1-.6-.2-1-.2s-.7.1-1 .2c-.3.1-.5.2-.7.4-.2.2-.3.4-.4.7-.1.3-.2.6-.2.9s.1.6.2.9c.1.3.2.5.4.7.2.2.4.3.7.4.5.2.8.2 1.1.2zM-3.5 290c0 .1 0 .2-.1.3 0 .1-.1.2-.2.2l-.2.2c-.1 0-.2.1-.3.1s-.2 0-.3-.1c-.1 0-.2-.1-.2-.2s-.1-.1-.2-.2c0-.1-.1-.2-.1-.3s0-.2.1-.3c0-.1.1-.2.2-.2s.1-.1.2-.2c.1 0 .2-.1.3-.1s.2 0 .3.1c.1 0 .2.1.2.2l.2.2c.1.1.1.2.1.3zm-.4 2.9v8.4h-.8v-8.4h.8zM-.9 301.3v-8.4h.4c.1 0 .2.1.3.2l.1 1.3c.4-.5.8-.9 1.3-1.2.5-.3 1.1-.4 1.7-.4.5 0 .9.1 1.2.2.4.1.6.4.9.6.2.3.4.6.5 1 .1.4.2.8.2 1.3v5.4h-.8V296c0-.8-.2-1.4-.5-1.9s-.9-.7-1.7-.7c-.6 0-1.1.1-1.5.4-.5.3-.9.7-1.3 1.2v6.3h-.8zM11.4 292.8c.5 0 .9.1 1.3.2.4.2.8.4 1 .7.3.3.5.7.7 1.2.2.5.2 1 .2 1.6 0 .1 0 .2-.1.3 0 0-.1.1-.2.1H8.4v.2c0 .6.1 1.2.2 1.7s.4.9.6 1.2.6.6 1 .7c.4.2.8.2 1.3.2.4 0 .8 0 1.1-.1.3-.1.6-.2.8-.3.2-.1.4-.2.5-.3.1-.1.2-.1.3-.1.1 0 .1 0 .2.1l.2.3c-.1.2-.3.3-.5.5s-.5.3-.7.4-.6.2-.9.2c-.3.1-.6.1-.9.1-.6 0-1.1-.1-1.6-.3-.5-.2-.9-.5-1.2-.9-.3-.4-.6-.9-.8-1.4-.2-.6-.3-1.2-.3-1.9 0-.6.1-1.2.3-1.7.2-.5.4-1 .7-1.3.3-.4.7-.7 1.2-.9.4-.4.9-.5 1.5-.5zm0 .6c-.4 0-.8.1-1.2.2-.3.1-.6.3-.9.6-.2.3-.5.6-.6.9-.2.4-.3.8-.3 1.2H14c0-.5-.1-.9-.2-1.2-.1-.4-.3-.7-.5-.9-.2-.2-.5-.4-.8-.6-.3-.2-.7-.2-1.1-.2zM20.1 292.8c.5 0 .9.1 1.3.2.4.2.8.4 1 .7.3.3.5.7.7 1.2.2.5.2 1 .2 1.6 0 .1 0 .2-.1.3 0 0-.1.1-.2.1h-6.1v.2c0 .6.1 1.2.2 1.7s.4.9.6 1.2.6.6 1 .7c.4.2.8.2 1.3.2.4 0 .8 0 1.1-.1.3-.1.6-.2.8-.3.2-.1.4-.2.5-.3.1-.1.2-.1.3-.1.1 0 .1 0 .2.1l.2.3c-.1.2-.3.3-.5.5s-.5.3-.7.4-.6.2-.9.2c-.3.1-.6.1-.9.1-.6 0-1.1-.1-1.6-.3-.5-.2-.9-.5-1.2-.9-.3-.4-.6-.9-.8-1.4-.2-.6-.3-1.2-.3-1.9 0-.6.1-1.2.3-1.7.2-.5.4-1 .7-1.3.3-.4.7-.7 1.2-.9.5-.4 1.1-.5 1.7-.5zm0 .6c-.4 0-.8.1-1.2.2-.3.1-.6.3-.9.6-.2.3-.5.6-.6.9-.2.4-.3.8-.3 1.2h5.5c0-.5-.1-.9-.2-1.2-.1-.4-.3-.7-.5-.9-.2-.2-.5-.4-.8-.6-.3-.2-.6-.2-1-.2zM25.5 301.3v-8.4h.5c.1 0 .2 0 .2.1 0 0 .1.1.1.2l.1 1.8c.3-.7.6-1.2 1.1-1.6.5-.4 1-.6 1.7-.6.3 0 .5 0 .7.1.2.1.4.1.6.2l-.1.6c0 .1-.1.1-.2.1h-.1c-.1 0-.1 0-.2-.1s-.2-.1-.3-.1h-.5c-.6 0-1.2.2-1.6.6s-.7 1-1 1.7v5.5h-1zM35.4 292.8c.5 0 .9.1 1.3.2.4.2.8.4 1 .7.3.3.5.7.7 1.2.2.5.2 1 .2 1.6 0 .1 0 .2-.1.3 0 0-.1.1-.2.1h-6.1v.2c0 .6.1 1.2.2 1.7s.4.9.6 1.2.6.6 1 .7c.4.2.8.2 1.3.2.4 0 .8 0 1.1-.1.3-.1.6-.2.8-.3.2-.1.4-.2.5-.3.1-.1.2-.1.3-.1.1 0 .1 0 .2.1l.2.3c-.1.2-.3.3-.5.5s-.5.3-.7.4-.6.2-.9.2c-.3.1-.6.1-.9.1-.6 0-1.1-.1-1.6-.3-.5-.2-.9-.5-1.2-.9-.3-.4-.6-.9-.8-1.4-.2-.6-.3-1.2-.3-1.9 0-.6.1-1.2.3-1.7.2-.5.4-1 .7-1.3.3-.4.7-.7 1.2-.9.6-.4 1.1-.5 1.7-.5zm0 .6c-.4 0-.8.1-1.2.2-.3.1-.6.3-.9.6-.2.3-.5.6-.6.9-.2.4-.3.8-.3 1.2H38c0-.5-.1-.9-.2-1.2-.1-.4-.3-.7-.5-.9-.2-.2-.5-.4-.8-.6-.3-.2-.7-.2-1.1-.2zM46.8 301.3c-.1 0-.2-.1-.2-.2l-.1-1.3c-.4.5-.8.9-1.3 1.2-.5.3-1.1.4-1.7.4-1 0-1.8-.4-2.4-1.1-.6-.7-.9-1.8-.9-3.2 0-.6.1-1.2.2-1.7.2-.5.4-1 .7-1.4s.7-.7 1.2-.9c.5-.2 1-.3 1.6-.3.6 0 1.1.1 1.5.3.4.2.8.5 1.1.9v-5h.8v12.3h-.5zm-3-.5c.6 0 1.1-.1 1.5-.4.5-.3.9-.7 1.2-1.2v-4.4c-.3-.5-.7-.8-1.1-1-.4-.2-.8-.3-1.3-.3s-.9.1-1.3.3c-.4.2-.7.4-.9.8-.3.3-.4.7-.6 1.2-.1.5-.2 1-.2 1.5 0 1.3.2 2.2.7 2.8s1.1.7 2 .7zM62.8 301.3h-.7c-.1 0-.1 0-.2-.1s-.1-.1-.1-.2l-1.4-3.5h-5.9l-1.4 3.5c0 .1-.1.1-.1.2-.1 0-.1.1-.2.1h-.7l4.9-12h.9l4.9 12zm-8-4.3h5.4l-2.4-6c0-.1-.1-.2-.1-.3 0-.1-.1-.2-.1-.4 0 .1-.1.3-.1.4s-.1.2-.1.3l-2.6 6zM64.3 304.3v-11.4H64.9s.1.1.1.2l.1 1.3c.4-.5.8-.9 1.3-1.2.5-.3 1.1-.4 1.7-.4 1 0 1.8.4 2.4 1.1.6.7.9 1.8.9 3.2 0 .6-.1 1.2-.2 1.7-.2.5-.4 1-.7 1.4-.3.4-.7.7-1.1.9-.5.2-1 .3-1.6.3-.6 0-1.1-.1-1.5-.3-.4-.2-.8-.5-1.1-.9v4.1h-.9zm3.5-10.9c-.6 0-1.1.1-1.5.4-.5.3-.9.7-1.2 1.2v4.4c.3.5.7.8 1.1 1 .4.2.8.3 1.3.3s.9-.1 1.3-.3c.4-.2.7-.4.9-.8.3-.3.4-.7.6-1.2.1-.5.2-1 .2-1.5 0-1.3-.2-2.2-.7-2.8s-1.1-.7-2-.7zM73.3 304.3v-11.4H73.9s.1.1.1.2l.1 1.3c.4-.5.8-.9 1.3-1.2.5-.3 1.1-.4 1.7-.4 1 0 1.8.4 2.4 1.1.6.7.9 1.8.9 3.2 0 .6-.1 1.2-.2 1.7-.2.5-.4 1-.7 1.4-.3.4-.7.7-1.1.9-.5.2-1 .3-1.6.3-.6 0-1.1-.1-1.5-.3-.4-.2-.8-.5-1.1-.9v4.1h-.9zm3.5-10.9c-.6 0-1.1.1-1.5.4-.5.3-.9.7-1.2 1.2v4.4c.3.5.7.8 1.1 1 .4.2.8.3 1.3.3s.9-.1 1.3-.3c.4-.2.7-.4.9-.8.3-.3.4-.7.6-1.2.1-.5.2-1 .2-1.5 0-1.3-.2-2.2-.7-2.8s-1.1-.7-2-.7zM87 294c0 .1-.1.1-.2.1s-.1 0-.2-.1-.2-.1-.4-.2-.4-.2-.6-.2c-.2-.1-.5-.1-.9-.1-.3 0-.6 0-.8.1s-.5.2-.6.3-.3.3-.4.5c-.1.2-.1.4-.1.6 0 .3.1.5.2.7.1.2.3.3.5.4.2.1.5.2.7.3l.9.3.9.3c.3.1.5.2.7.4.2.2.4.4.5.6.1.2.2.5.2.9s-.1.7-.2 1c-.1.3-.3.6-.6.8-.2.2-.6.4-.9.5-.4.1-.8.2-1.3.2-.6 0-1.1-.1-1.5-.3-.4-.2-.8-.4-1.1-.7l.2-.3.1-.1h.1c.1 0 .2 0 .3.1.1.1.2.2.4.3l.6.3c.3.1.6.1 1 .1s.7 0 .9-.1.5-.2.7-.4c.2-.2.3-.4.4-.6s.1-.5.1-.7c0-.3-.1-.5-.2-.7-.1-.2-.3-.3-.5-.5s-.5-.2-.7-.3l-.9-.3-.9-.3c-.3-.1-.5-.2-.7-.4-.2-.2-.4-.4-.5-.6-.1-.2-.2-.5-.2-.9 0-.3.1-.6.2-.9.1-.3.3-.5.6-.7.2-.2.5-.4.9-.5s.7-.2 1.2-.2 1 .1 1.4.2.8.4 1.1.7l-.4.4zM89.1 300.7c0-.1 0-.2.1-.3 0-.1.1-.2.2-.2s.2-.1.2-.2c.1 0 .2-.1.3-.1.1 0 .2 0 .3.1.1 0 .2.1.2.2s.1.2.2.2.1.2.1.3c0 .1 0 .2-.1.3 0 .1-.1.2-.2.2-.1.1-.2.1-.2.2-.1 0-.2.1-.3.1-.2 0-.4-.1-.6-.2-.1-.2-.2-.4-.2-.6z"/></g></svg>