<svg xmlns="http://www.w3.org/2000/svg" version="1" width="1024" height="405" viewBox="0 0 141.68695 56.054741"><path d="M112.188 7.53c-.332 0-.61.117-.75.345-.145.235-.123.537.03.844l3.72 6.436c.006.013.006.02 0 .03l-5.844 10.314c-.153.304-.145.61 0 .844.14.226.387.375.72.375h5.5c.82 0 1.217-.556 1.5-1.064l5.936-10.5c-.022-.036-3.78-6.594-3.78-6.594-.275-.487-.69-1.03-1.532-1.03h-5.5zm-24.22 12.032c-8.534 0-13.218 4.98-13.218 14v9.5c0 8.615 4.1 13 12.22 13 6.562 0 11.877-2.566 12.25-2.75V36.25c0-.53-.377-.906-.907-.906H87.436c-.53 0-.906.376-.906.906v4.375c0 .53.377.906.907.906H92.5c.02 0 .03.01.03.032v7.376c0 .016-.016.026-.03.03-.024.01-2.385.907-5.313.907-3.867 0-5.75-2.4-5.75-7.313v-9c0-2.553.503-4.43 1.532-5.718 1.125-1.41 2.828-2.094 5.25-2.094h1.06c3.516 0 6.23.785 7.97 1.344.27.086.517.04.688-.094.173-.137.28-.37.28-.656v-4.188c0-.473-.232-.74-.937-1.093-.897-.45-3.456-1.5-7.874-1.5H87.97zm-86.812.47c-.252 0-.448.097-.562.28-.124.2-.123.474 0 .72L9.53 37.31c.008.012.008.052 0 .063L.095 54.47c-.124.245-.124.52 0 .718.112.183.31.28.562.28H6.75c.697 0 .946-.39 1.22-.937l6.25-11.5c.005-.01.016-.03.03-.03.015 0 .025.02.03.03 0 0 6.28 11.5 6.283 11.5.27.546.49.94 1.187.94h6.125c.253 0 .45-.1.563-.282.062-.1.093-.223.093-.344 0-.123-.03-.252-.093-.375 0-.004-9.468-17.095-9.468-17.095-.005-.006 0-.025 0-.03 0-.008-.005-.028 0-.032l8.968-16.282c.06-.123.093-.25.093-.374 0-.12-.03-.245-.093-.343-.113-.184-.31-.282-.562-.282H21.25c-.698 0-.946.394-1.22.94l-5.75 10.686c-.005.012-.015.032-.03.032-.014 0-.025-.02-.03-.032L8.47 20.97c-.23-.46-.47-.94-1.22-.94H1.156zm31.813 0c-.53 0-.907.377-.907.905v33.626c0 .528.377.906.906.906h4.843c.528 0 .906-.38.906-.907V20.937c0-.528-.38-.906-.907-.906h-4.844zm12.936 0c-.53 0-.937.377-.937.905v33.626c0 .528.407.906.936.906h4.844c.53 0 .906-.38.906-.907V34.28c0-.016.015-.026.032-.03.016-.005.023.016.03.03l10.5 20.25c.217.434.553.94 1.22.94H68.5c.53 0 .906-.38.906-.907V20.937c0-.528-.377-.906-.906-.906h-4.844c-.53 0-.906.38-.906.907v20.25c0 .018-.015.028-.03.032-.017.004-.055.014-.064 0l-10.5-20.25c-.23-.457-.467-.94-1.218-.94h-5.032z" fill="#005a5f"/><path d="M135.293 0c-.82 0-1.177.517-1.472 1.048L121.583 22.75l7.815 14.337c.273.488.694 1.048 1.536 1.048h5.494c.33 0 .59-.125.73-.35.146-.236.143-.546-.01-.85l-7.755-14.168c-.007-.01-.007-.024 0-.036L141.57 1.2c.152-.304.156-.614.01-.85-.14-.225-.4-.35-.73-.35h-5.557z" fill="#d4d600"/></svg>