<?xml version="1.0" encoding="utf-8"?>
<!-- Generator: Adobe Illustrator 17.1.0, SVG Export Plug-In . SVG Version: 6.00 Build 0)  -->
<!DOCTYPE svg PUBLIC "-//W3C//DTD SVG 1.1//EN" "http://www.w3.org/Graphics/SVG/1.1/DTD/svg11.dtd">
<svg version="1.1" id="Ebene_1" xmlns="http://www.w3.org/2000/svg" xmlns:xlink="http://www.w3.org/1999/xlink" x="0px" y="0px"
	 viewBox="-145.9 216.4 243.9 108" enable-background="new -145.9 216.4 243.9 108" xml:space="preserve">
<g>
	<g id="Black__x28_Level_4_x2C__Left_x29_">
		
			<rect id="_x39_76B302F" x="-135.5" y="254.8" fill="#111111" stroke="#FFFFFF" stroke-linecap="square" stroke-miterlimit="10" width="30.1" height="41.8"/>
		
			<rect id="A76B302F" x="-132.2" y="259.4" fill="#FFFFFF" stroke="#FFFFFF" stroke-linecap="square" stroke-miterlimit="10" width="23.5" height="28.7"/>
		
			<circle id="B76B302F" fill="#FFFFFF" stroke="#FFFFFF" stroke-linecap="square" stroke-miterlimit="10" cx="-120.5" cy="292.1" r="1.9"/>
	</g>
	<g id="Dark_Red__x28_Level_3_x2C__Right_x29_">
		
			<rect id="_x36_76B302F_2_" x="-109.8" y="252.1" fill="#A83000" stroke="#FFFFFF" stroke-linecap="square" stroke-miterlimit="10" width="26.1" height="36.6"/>
		
			<rect id="_x37_76B302F_2_" x="-106.6" y="255.4" fill="#FFFFFF" stroke="#FFFFFF" stroke-linecap="square" stroke-miterlimit="10" width="19.6" height="26.1"/>
		
			<circle id="_x38_76B302F_2_" fill="#FFFFFF" stroke="#FFFFFF" stroke-linecap="square" stroke-miterlimit="10" cx="-96.7" cy="285" r="1.9"/>
	</g>
	<g id="Dark_Green__x28_Level_2_x2C__Center_x29_">
		
			<rect id="C76B302F" x="-125.9" y="246" fill="#00A187" stroke="#FFFFFF" stroke-linecap="square" stroke-miterlimit="10" width="20.9" height="35.3"/>
		
			<rect id="D76B302F" x="-123.2" y="248.6" fill="#FFFFFF" stroke="#FFFFFF" stroke-linecap="square" stroke-miterlimit="10" width="15.7" height="23.5"/>
		
			<circle id="E76B302F" fill="#FFFFFF" stroke="#FFFFFF" stroke-linecap="square" stroke-miterlimit="10" cx="-115.4" cy="277.4" r="1.9"/>
	</g>
	<g id="Orange__x28_Level_1_x2C__Center_x29_">
		
			<rect id="F76B302F_2_" x="-112.5" y="261.2" fill="#FF6400" stroke="#FFFFFF" stroke-linecap="square" stroke-miterlimit="10" width="23.5" height="40.5"/>
		
			<rect id="_x30_86B302F_2_" x="-109.9" y="263.8" fill="#FFFFFF" stroke="#FFFFFF" stroke-linecap="square" stroke-miterlimit="10" width="18.3" height="28.7"/>
		
			<circle id="_x31_86B302F_2_" fill="#FFFFFF" stroke="#FFFFFF" stroke-linecap="square" stroke-miterlimit="10" cx="-100.7" cy="296.8" r="1.9"/>
	</g>
	<g id="Text">
		<g enable-background="new    ">
			<path d="M-9.5,276.1c0.2,0,0.3,0.1,0.4,0.2l1,1.1c-0.7,0.8-1.6,1.5-2.4,2.2c-0.9,0.6-1.8,1.2-2.9,1.6s-2.2,0.8-3.4,1
				s-2.6,0.4-4.1,0.4c-2.5,0-4.8-0.4-6.9-1.3c-2.1-0.9-3.9-2.1-5.3-3.7c-1.5-1.6-2.6-3.5-3.5-5.8c-0.8-2.3-1.2-4.8-1.2-7.6
				c0-2.7,0.4-5.2,1.3-7.5c0.9-2.3,2.1-4.2,3.6-5.8c1.6-1.6,3.4-2.9,5.6-3.8s4.6-1.3,7.2-1.3c1.3,0,2.5,0.1,3.6,0.3
				c1.1,0.2,2.1,0.5,3,0.8c0.9,0.4,1.8,0.8,2.7,1.4c0.8,0.5,1.6,1.2,2.4,1.9l-0.8,1.1c-0.1,0.2-0.3,0.3-0.6,0.3
				c-0.2,0-0.3-0.1-0.6-0.3c-0.2-0.2-0.5-0.4-0.9-0.7c-0.4-0.3-0.8-0.6-1.3-0.9s-1.1-0.6-1.8-0.9s-1.5-0.5-2.5-0.7
				c-0.9-0.2-2-0.3-3.2-0.3c-2.2,0-4.2,0.4-6,1.1c-1.8,0.8-3.4,1.8-4.7,3.2c-1.3,1.4-2.4,3.1-3.1,5.1c-0.7,2-1.1,4.2-1.1,6.7
				c0,2.5,0.4,4.8,1.1,6.8s1.7,3.7,3,5.1c1.3,1.4,2.8,2.4,4.6,3.2c1.8,0.7,3.7,1.1,5.7,1.1c1.3,0,2.4-0.1,3.5-0.3
				c1-0.2,1.9-0.4,2.8-0.8c0.8-0.3,1.6-0.8,2.4-1.2c0.7-0.5,1.5-1.1,2.2-1.7c0.1-0.1,0.2-0.1,0.2-0.2
				C-9.7,276.1-9.6,276.1-9.5,276.1z"/>
		</g>
		<g enable-background="new    ">
			<path d="M12.2,246.2c0.1,0.1,0.3,0.2,0.4,0.4l23.3,31.2c-0.1-0.5-0.1-1-0.1-1.5v-30.2h2.3v36h-1.2c-0.4,0-0.7-0.2-0.9-0.5
				l-23.4-31.3c0.1,0.5,0.1,1,0.1,1.5v30.3h-2.3v-36h1.3C11.8,246.1,12,246.1,12.2,246.2z"/>
		</g>
		<g enable-background="new    ">
			<path d="M86.8,282.1h-2.6v-17.3H61.6v17.3H59v-36h2.6v16.8h22.6v-16.8h2.6V282.1z"/>
		</g>
		<g enable-background="new    ">
			<path d="M-56,282.1h-2.6v-36h2.6V282.1z"/>
		</g>
		<g enable-background="new    ">
			<path fill="#FF6400" d="M-1.8,265.2c0-0.3,0.1-0.6,0.2-0.9s0.3-0.5,0.5-0.8c0.2-0.2,0.5-0.4,0.7-0.5c0.3-0.1,0.6-0.2,0.9-0.2
				c0.3,0,0.6,0.1,0.9,0.2c0.3,0.1,0.5,0.3,0.8,0.5c0.2,0.2,0.4,0.5,0.5,0.8c0.1,0.3,0.2,0.6,0.2,0.9c0,0.3-0.1,0.6-0.2,0.9
				c-0.1,0.3-0.3,0.5-0.5,0.7c-0.2,0.2-0.5,0.4-0.8,0.5c-0.3,0.1-0.6,0.2-0.9,0.2c-0.7,0-1.2-0.2-1.7-0.7
				C-1.6,266.4-1.8,265.8-1.8,265.2z"/>
		</g>
		<g enable-background="new    ">
			<path fill="#FF6400" d="M46.2,265.2c0-0.3,0.1-0.6,0.2-0.9s0.3-0.5,0.5-0.8c0.2-0.2,0.5-0.4,0.7-0.5c0.3-0.1,0.6-0.2,0.9-0.2
				c0.3,0,0.6,0.1,0.9,0.2c0.3,0.1,0.5,0.3,0.8,0.5c0.2,0.2,0.4,0.5,0.5,0.8c0.1,0.3,0.2,0.6,0.2,0.9c0,0.3-0.1,0.6-0.2,0.9
				c-0.1,0.3-0.3,0.5-0.5,0.7c-0.2,0.2-0.5,0.4-0.8,0.5c-0.3,0.1-0.6,0.2-0.9,0.2c-0.7,0-1.2-0.2-1.7-0.7
				C46.5,266.4,46.2,265.8,46.2,265.2z"/>
		</g>
		<g enable-background="new    ">
			<path fill="#FF6400" d="M-50.1,265.2c0-0.3,0.1-0.6,0.2-0.9s0.3-0.5,0.5-0.8c0.2-0.2,0.5-0.4,0.7-0.5c0.3-0.1,0.6-0.2,0.9-0.2
				c0.3,0,0.6,0.1,0.9,0.2c0.3,0.1,0.5,0.3,0.8,0.5c0.2,0.2,0.4,0.5,0.5,0.8s0.2,0.6,0.2,0.9c0,0.3-0.1,0.6-0.2,0.9
				s-0.3,0.5-0.5,0.7c-0.2,0.2-0.5,0.4-0.8,0.5c-0.3,0.1-0.6,0.2-0.9,0.2c-0.7,0-1.2-0.2-1.7-0.7C-49.9,266.4-50.1,265.8-50.1,265.2
				z"/>
		</g>
	</g>
	<g enable-background="new    ">
		<path d="M-25,289.4v0.7h-6.3v4.8h5.2v0.7h-5.2v5h6.3v0.7h-7.2v-12H-25z"/>
		<path d="M-22.6,301.3v-8.4h0.4c0.1,0,0.2,0.1,0.3,0.2l0.1,1.3c0.4-0.5,0.8-0.9,1.3-1.2c0.5-0.3,1.1-0.4,1.7-0.4
			c0.5,0,0.9,0.1,1.2,0.2c0.4,0.1,0.6,0.4,0.9,0.6c0.2,0.3,0.4,0.6,0.5,1c0.1,0.4,0.2,0.8,0.2,1.3v5.4h-0.8V296
			c0-0.8-0.2-1.4-0.5-1.9s-0.9-0.7-1.7-0.7c-0.6,0-1.1,0.1-1.5,0.4c-0.5,0.3-0.9,0.7-1.3,1.2v6.3H-22.6z"/>
		<path d="M-10.7,292.8c0.4,0,0.7,0,1,0.1c0.3,0.1,0.6,0.2,0.8,0.4h2.2v0.3c0,0.1-0.1,0.2-0.2,0.2l-1.3,0.1c0.2,0.2,0.3,0.5,0.4,0.7
			c0.1,0.3,0.1,0.6,0.1,0.9c0,0.4-0.1,0.8-0.2,1.1c-0.1,0.3-0.4,0.6-0.6,0.8c-0.3,0.2-0.6,0.4-0.9,0.5c-0.4,0.1-0.8,0.2-1.2,0.2
			c-0.5,0-0.9-0.1-1.3-0.2c-0.2,0.1-0.4,0.3-0.6,0.5c-0.1,0.2-0.2,0.4-0.2,0.5c0,0.2,0.1,0.4,0.3,0.6s0.4,0.2,0.7,0.3
			c0.3,0.1,0.6,0.1,1,0.1c0.4,0,0.7,0,1.1,0.1s0.7,0.1,1.1,0.1c0.4,0.1,0.7,0.1,1,0.3c0.3,0.1,0.5,0.3,0.7,0.5s0.3,0.5,0.3,0.9
			c0,0.3-0.1,0.7-0.3,1c-0.2,0.3-0.4,0.6-0.8,0.9c-0.3,0.2-0.7,0.4-1.2,0.6c-0.5,0.1-1,0.2-1.6,0.2c-0.6,0-1.1-0.1-1.6-0.2
			s-0.8-0.3-1.1-0.5c-0.3-0.2-0.5-0.4-0.7-0.7c-0.2-0.3-0.2-0.6-0.2-0.9c0-0.4,0.1-0.8,0.4-1.1s0.7-0.6,1.2-0.7
			c-0.3-0.1-0.5-0.2-0.7-0.4c-0.2-0.2-0.2-0.4-0.2-0.8c0-0.1,0-0.2,0.1-0.4c0-0.1,0.1-0.3,0.2-0.4c0.1-0.1,0.2-0.2,0.3-0.4
			c0.1-0.1,0.3-0.2,0.4-0.3c-0.4-0.2-0.7-0.5-0.9-0.9c-0.2-0.4-0.3-0.8-0.3-1.3c0-0.4,0.1-0.8,0.2-1.1c0.1-0.3,0.3-0.6,0.6-0.8
			c0.3-0.2,0.6-0.4,1-0.5C-11.5,292.8-11.1,292.8-10.7,292.8z M-7.5,301.9c0-0.3-0.1-0.5-0.2-0.6c-0.1-0.2-0.3-0.3-0.6-0.4
			c-0.2-0.1-0.5-0.2-0.8-0.2c-0.3,0-0.6-0.1-0.9-0.1c-0.3,0-0.7,0-1-0.1c-0.3,0-0.6-0.1-0.9-0.1c-0.2,0.1-0.4,0.2-0.6,0.3
			c-0.2,0.1-0.3,0.2-0.5,0.4c-0.1,0.1-0.2,0.3-0.3,0.5s-0.1,0.3-0.1,0.5c0,0.2,0.1,0.5,0.2,0.7c0.1,0.2,0.3,0.4,0.6,0.5
			c0.2,0.2,0.5,0.3,0.9,0.4c0.4,0.1,0.8,0.1,1.2,0.1c0.4,0,0.8,0,1.2-0.1s0.7-0.2,1-0.4c0.3-0.2,0.5-0.4,0.6-0.6
			C-7.6,302.4-7.5,302.2-7.5,301.9z M-10.7,297.6c0.4,0,0.7-0.1,1-0.2c0.3-0.1,0.5-0.2,0.7-0.4c0.2-0.2,0.3-0.4,0.4-0.7
			c0.1-0.3,0.1-0.5,0.1-0.9s-0.1-0.6-0.2-0.9c-0.1-0.3-0.2-0.5-0.4-0.7c-0.2-0.2-0.4-0.3-0.7-0.4c-0.3-0.1-0.6-0.2-1-0.2
			c-0.4,0-0.7,0.1-1,0.2c-0.3,0.1-0.5,0.2-0.7,0.4c-0.2,0.2-0.3,0.4-0.4,0.7c-0.1,0.3-0.2,0.6-0.2,0.9s0.1,0.6,0.2,0.9
			c0.1,0.3,0.2,0.5,0.4,0.7c0.2,0.2,0.4,0.3,0.7,0.4C-11.3,297.6-11,297.6-10.7,297.6z"/>
		<path d="M-3.5,290c0,0.1,0,0.2-0.1,0.3c0,0.1-0.1,0.2-0.2,0.2c-0.1,0.1-0.1,0.1-0.2,0.2c-0.1,0-0.2,0.1-0.3,0.1s-0.2,0-0.3-0.1
			c-0.1,0-0.2-0.1-0.2-0.2s-0.1-0.1-0.2-0.2c0-0.1-0.1-0.2-0.1-0.3s0-0.2,0.1-0.3c0-0.1,0.1-0.2,0.2-0.2s0.1-0.1,0.2-0.2
			c0.1,0,0.2-0.1,0.3-0.1s0.2,0,0.3,0.1c0.1,0,0.2,0.1,0.2,0.2c0.1,0.1,0.1,0.1,0.2,0.2C-3.5,289.8-3.5,289.9-3.5,290z M-3.9,292.9
			v8.4h-0.8v-8.4H-3.9z"/>
		<path d="M-0.9,301.3v-8.4h0.4c0.1,0,0.2,0.1,0.3,0.2l0.1,1.3c0.4-0.5,0.8-0.9,1.3-1.2c0.5-0.3,1.1-0.4,1.7-0.4
			c0.5,0,0.9,0.1,1.2,0.2c0.4,0.1,0.6,0.4,0.9,0.6c0.2,0.3,0.4,0.6,0.5,1c0.1,0.4,0.2,0.8,0.2,1.3v5.4H4.9V296
			c0-0.8-0.2-1.4-0.5-1.9s-0.9-0.7-1.7-0.7c-0.6,0-1.1,0.1-1.5,0.4c-0.5,0.3-0.9,0.7-1.3,1.2v6.3H-0.9z"/>
		<path d="M11.4,292.8c0.5,0,0.9,0.1,1.3,0.2c0.4,0.2,0.8,0.4,1,0.7c0.3,0.3,0.5,0.7,0.7,1.2c0.2,0.5,0.2,1,0.2,1.6
			c0,0.1,0,0.2-0.1,0.3c0,0-0.1,0.1-0.2,0.1H8.4v0.2c0,0.6,0.1,1.2,0.2,1.7s0.4,0.9,0.6,1.2s0.6,0.6,1,0.7c0.4,0.2,0.8,0.2,1.3,0.2
			c0.4,0,0.8,0,1.1-0.1c0.3-0.1,0.6-0.2,0.8-0.3c0.2-0.1,0.4-0.2,0.5-0.3c0.1-0.1,0.2-0.1,0.3-0.1c0.1,0,0.1,0,0.2,0.1l0.2,0.3
			c-0.1,0.2-0.3,0.3-0.5,0.5s-0.5,0.3-0.7,0.4s-0.6,0.2-0.9,0.2c-0.3,0.1-0.6,0.1-0.9,0.1c-0.6,0-1.1-0.1-1.6-0.3
			c-0.5-0.2-0.9-0.5-1.2-0.9c-0.3-0.4-0.6-0.9-0.8-1.4c-0.2-0.6-0.3-1.2-0.3-1.9c0-0.6,0.1-1.2,0.3-1.7c0.2-0.5,0.4-1,0.7-1.3
			c0.3-0.4,0.7-0.7,1.2-0.9C10.3,292.9,10.8,292.8,11.4,292.8z M11.4,293.4c-0.4,0-0.8,0.1-1.2,0.2c-0.3,0.1-0.6,0.3-0.9,0.6
			c-0.2,0.3-0.5,0.6-0.6,0.9c-0.2,0.4-0.3,0.8-0.3,1.2H14c0-0.5-0.1-0.9-0.2-1.2c-0.1-0.4-0.3-0.7-0.5-0.9c-0.2-0.2-0.5-0.4-0.8-0.6
			C12.2,293.4,11.8,293.4,11.4,293.4z"/>
		<path d="M20.1,292.8c0.5,0,0.9,0.1,1.3,0.2c0.4,0.2,0.8,0.4,1,0.7c0.3,0.3,0.5,0.7,0.7,1.2c0.2,0.5,0.2,1,0.2,1.6
			c0,0.1,0,0.2-0.1,0.3c0,0-0.1,0.1-0.2,0.1h-6.1v0.2c0,0.6,0.1,1.2,0.2,1.7s0.4,0.9,0.6,1.2s0.6,0.6,1,0.7c0.4,0.2,0.8,0.2,1.3,0.2
			c0.4,0,0.8,0,1.1-0.1c0.3-0.1,0.6-0.2,0.8-0.3c0.2-0.1,0.4-0.2,0.5-0.3c0.1-0.1,0.2-0.1,0.3-0.1c0.1,0,0.1,0,0.2,0.1l0.2,0.3
			c-0.1,0.2-0.3,0.3-0.5,0.5s-0.5,0.3-0.7,0.4s-0.6,0.2-0.9,0.2c-0.3,0.1-0.6,0.1-0.9,0.1c-0.6,0-1.1-0.1-1.6-0.3
			c-0.5-0.2-0.9-0.5-1.2-0.9c-0.3-0.4-0.6-0.9-0.8-1.4c-0.2-0.6-0.3-1.2-0.3-1.9c0-0.6,0.1-1.2,0.3-1.7c0.2-0.5,0.4-1,0.7-1.3
			c0.3-0.4,0.7-0.7,1.2-0.9C18.9,292.9,19.5,292.8,20.1,292.8z M20.1,293.4c-0.4,0-0.8,0.1-1.2,0.2c-0.3,0.1-0.6,0.3-0.9,0.6
			c-0.2,0.3-0.5,0.6-0.6,0.9c-0.2,0.4-0.3,0.8-0.3,1.2h5.5c0-0.5-0.1-0.9-0.2-1.2c-0.1-0.4-0.3-0.7-0.5-0.9
			c-0.2-0.2-0.5-0.4-0.8-0.6C20.8,293.4,20.5,293.4,20.1,293.4z"/>
		<path d="M25.5,301.3v-8.4H26c0.1,0,0.2,0,0.2,0.1c0,0,0.1,0.1,0.1,0.2l0.1,1.8c0.3-0.7,0.6-1.2,1.1-1.6c0.5-0.4,1-0.6,1.7-0.6
			c0.3,0,0.5,0,0.7,0.1c0.2,0.1,0.4,0.1,0.6,0.2l-0.1,0.6c0,0.1-0.1,0.1-0.2,0.1c0,0-0.1,0-0.1,0c-0.1,0-0.1,0-0.2-0.1
			s-0.2-0.1-0.3-0.1c-0.1,0-0.3,0-0.5,0c-0.6,0-1.2,0.2-1.6,0.6s-0.7,1-1,1.7v5.5H25.5z"/>
		<path d="M35.4,292.8c0.5,0,0.9,0.1,1.3,0.2c0.4,0.2,0.8,0.4,1,0.7c0.3,0.3,0.5,0.7,0.7,1.2c0.2,0.5,0.2,1,0.2,1.6
			c0,0.1,0,0.2-0.1,0.3c0,0-0.1,0.1-0.2,0.1h-6.1v0.2c0,0.6,0.1,1.2,0.2,1.7s0.4,0.9,0.6,1.2s0.6,0.6,1,0.7c0.4,0.2,0.8,0.2,1.3,0.2
			c0.4,0,0.8,0,1.1-0.1c0.3-0.1,0.6-0.2,0.8-0.3c0.2-0.1,0.4-0.2,0.5-0.3c0.1-0.1,0.2-0.1,0.3-0.1c0.1,0,0.1,0,0.2,0.1l0.2,0.3
			c-0.1,0.2-0.3,0.3-0.5,0.5s-0.5,0.3-0.7,0.4s-0.6,0.2-0.9,0.2c-0.3,0.1-0.6,0.1-0.9,0.1c-0.6,0-1.1-0.1-1.6-0.3
			c-0.5-0.2-0.9-0.5-1.2-0.9c-0.3-0.4-0.6-0.9-0.8-1.4c-0.2-0.6-0.3-1.2-0.3-1.9c0-0.6,0.1-1.2,0.3-1.7c0.2-0.5,0.4-1,0.7-1.3
			c0.3-0.4,0.7-0.7,1.2-0.9C34.3,292.9,34.8,292.8,35.4,292.8z M35.4,293.4c-0.4,0-0.8,0.1-1.2,0.2c-0.3,0.1-0.6,0.3-0.9,0.6
			c-0.2,0.3-0.5,0.6-0.6,0.9c-0.2,0.4-0.3,0.8-0.3,1.2H38c0-0.5-0.1-0.9-0.2-1.2c-0.1-0.4-0.3-0.7-0.5-0.9c-0.2-0.2-0.5-0.4-0.8-0.6
			C36.2,293.4,35.8,293.4,35.4,293.4z"/>
		<path d="M46.8,301.3c-0.1,0-0.2-0.1-0.2-0.2l-0.1-1.3c-0.4,0.5-0.8,0.9-1.3,1.2c-0.5,0.3-1.1,0.4-1.7,0.4c-1,0-1.8-0.4-2.4-1.1
			c-0.6-0.7-0.9-1.8-0.9-3.2c0-0.6,0.1-1.2,0.2-1.7c0.2-0.5,0.4-1,0.7-1.4s0.7-0.7,1.2-0.9c0.5-0.2,1-0.3,1.6-0.3
			c0.6,0,1.1,0.1,1.5,0.3c0.4,0.2,0.8,0.5,1.1,0.9v-5h0.8v12.3H46.8z M43.8,300.8c0.6,0,1.1-0.1,1.5-0.4c0.5-0.3,0.9-0.7,1.2-1.2
			v-4.4c-0.3-0.5-0.7-0.8-1.1-1c-0.4-0.2-0.8-0.3-1.3-0.3c-0.5,0-0.9,0.1-1.3,0.3c-0.4,0.2-0.7,0.4-0.9,0.8
			c-0.3,0.3-0.4,0.7-0.6,1.2c-0.1,0.5-0.2,1-0.2,1.5c0,1.3,0.2,2.2,0.7,2.8S42.9,300.8,43.8,300.8z"/>
		<path d="M62.8,301.3h-0.7c-0.1,0-0.1,0-0.2-0.1s-0.1-0.1-0.1-0.2l-1.4-3.5h-5.9l-1.4,3.5c0,0.1-0.1,0.1-0.1,0.2
			c-0.1,0-0.1,0.1-0.2,0.1h-0.7l4.9-12h0.9L62.8,301.3z M54.8,297h5.4l-2.4-6c0-0.1-0.1-0.2-0.1-0.3c0-0.1-0.1-0.2-0.1-0.4
			c0,0.1-0.1,0.3-0.1,0.4s-0.1,0.2-0.1,0.3L54.8,297z"/>
		<path d="M64.3,304.3v-11.4h0.4c0.1,0,0.1,0,0.2,0c0,0,0.1,0.1,0.1,0.2l0.1,1.3c0.4-0.5,0.8-0.9,1.3-1.2c0.5-0.3,1.1-0.4,1.7-0.4
			c1,0,1.8,0.4,2.4,1.1c0.6,0.7,0.9,1.8,0.9,3.2c0,0.6-0.1,1.2-0.2,1.7c-0.2,0.5-0.4,1-0.7,1.4c-0.3,0.4-0.7,0.7-1.1,0.9
			c-0.5,0.2-1,0.3-1.6,0.3c-0.6,0-1.1-0.1-1.5-0.3c-0.4-0.2-0.8-0.5-1.1-0.9v4.1H64.3z M67.8,293.4c-0.6,0-1.1,0.1-1.5,0.4
			c-0.5,0.3-0.9,0.7-1.2,1.2v4.4c0.3,0.5,0.7,0.8,1.1,1c0.4,0.2,0.8,0.3,1.3,0.3c0.5,0,0.9-0.1,1.3-0.3c0.4-0.2,0.7-0.4,0.9-0.8
			c0.3-0.3,0.4-0.7,0.6-1.2c0.1-0.5,0.2-1,0.2-1.5c0-1.3-0.2-2.2-0.7-2.8S68.7,293.4,67.8,293.4z"/>
		<path d="M73.3,304.3v-11.4h0.4c0.1,0,0.1,0,0.2,0c0,0,0.1,0.1,0.1,0.2l0.1,1.3c0.4-0.5,0.8-0.9,1.3-1.2c0.5-0.3,1.1-0.4,1.7-0.4
			c1,0,1.8,0.4,2.4,1.1c0.6,0.7,0.9,1.8,0.9,3.2c0,0.6-0.1,1.2-0.2,1.7c-0.2,0.5-0.4,1-0.7,1.4c-0.3,0.4-0.7,0.7-1.1,0.9
			c-0.5,0.2-1,0.3-1.6,0.3c-0.6,0-1.1-0.1-1.5-0.3c-0.4-0.2-0.8-0.5-1.1-0.9v4.1H73.3z M76.8,293.4c-0.6,0-1.1,0.1-1.5,0.4
			c-0.5,0.3-0.9,0.7-1.2,1.2v4.4c0.3,0.5,0.7,0.8,1.1,1c0.4,0.2,0.8,0.3,1.3,0.3c0.5,0,0.9-0.1,1.3-0.3c0.4-0.2,0.7-0.4,0.9-0.8
			c0.3-0.3,0.4-0.7,0.6-1.2c0.1-0.5,0.2-1,0.2-1.5c0-1.3-0.2-2.2-0.7-2.8S77.7,293.4,76.8,293.4z"/>
		<path d="M87,294c0,0.1-0.1,0.1-0.2,0.1c-0.1,0-0.1,0-0.2-0.1s-0.2-0.1-0.4-0.2c-0.2-0.1-0.4-0.2-0.6-0.2c-0.2-0.1-0.5-0.1-0.9-0.1
			c-0.3,0-0.6,0-0.8,0.1s-0.5,0.2-0.6,0.3s-0.3,0.3-0.4,0.5c-0.1,0.2-0.1,0.4-0.1,0.6c0,0.3,0.1,0.5,0.2,0.7
			c0.1,0.2,0.3,0.3,0.5,0.4c0.2,0.1,0.5,0.2,0.7,0.3c0.3,0.1,0.6,0.2,0.9,0.3c0.3,0.1,0.6,0.2,0.9,0.3c0.3,0.1,0.5,0.2,0.7,0.4
			c0.2,0.2,0.4,0.4,0.5,0.6c0.1,0.2,0.2,0.5,0.2,0.9c0,0.4-0.1,0.7-0.2,1c-0.1,0.3-0.3,0.6-0.6,0.8c-0.2,0.2-0.6,0.4-0.9,0.5
			c-0.4,0.1-0.8,0.2-1.3,0.2c-0.6,0-1.1-0.1-1.5-0.3c-0.4-0.2-0.8-0.4-1.1-0.7l0.2-0.3c0,0,0.1-0.1,0.1-0.1c0,0,0.1,0,0.1,0
			c0.1,0,0.2,0,0.3,0.1c0.1,0.1,0.2,0.2,0.4,0.3c0.2,0.1,0.4,0.2,0.6,0.3c0.3,0.1,0.6,0.1,1,0.1c0.4,0,0.7,0,0.9-0.1
			s0.5-0.2,0.7-0.4c0.2-0.2,0.3-0.4,0.4-0.6s0.1-0.5,0.1-0.7c0-0.3-0.1-0.5-0.2-0.7c-0.1-0.2-0.3-0.3-0.5-0.5s-0.5-0.2-0.7-0.3
			c-0.3-0.1-0.6-0.2-0.9-0.3c-0.3-0.1-0.6-0.2-0.9-0.3c-0.3-0.1-0.5-0.2-0.7-0.4c-0.2-0.2-0.4-0.4-0.5-0.6c-0.1-0.2-0.2-0.5-0.2-0.9
			c0-0.3,0.1-0.6,0.2-0.9c0.1-0.3,0.3-0.5,0.6-0.7c0.2-0.2,0.5-0.4,0.9-0.5s0.7-0.2,1.2-0.2c0.5,0,1,0.1,1.4,0.2s0.8,0.4,1.1,0.7
			L87,294z"/>
		<path d="M89.1,300.7c0-0.1,0-0.2,0.1-0.3c0-0.1,0.1-0.2,0.2-0.2s0.2-0.1,0.2-0.2c0.1,0,0.2-0.1,0.3-0.1c0.1,0,0.2,0,0.3,0.1
			c0.1,0,0.2,0.1,0.2,0.2s0.1,0.2,0.2,0.2s0.1,0.2,0.1,0.3c0,0.1,0,0.2-0.1,0.3c0,0.1-0.1,0.2-0.2,0.2c-0.1,0.1-0.2,0.1-0.2,0.2
			c-0.1,0-0.2,0.1-0.3,0.1c-0.2,0-0.4-0.1-0.6-0.2C89.2,301.1,89.1,300.9,89.1,300.7z"/>
	</g>
</g>
</svg>
